<svg xmlns="http://www.w3.org/2000/svg" viewBox="0 0 32 32" width="32" height="32">
  <!-- 野球ボールの基本形状 -->
  <circle cx="16" cy="16" r="15" fill="#ffffff" stroke="#000000" stroke-width="0.5"/>
  
  <!-- 縫い目のカーブライン（左側） -->
  <path d="M 8 12 Q 12 8 16 12 Q 20 16 16 20 Q 12 24 8 20" 
        fill="none" 
        stroke="#cc0000" 
        stroke-width="1.5" 
        stroke-linecap="round"/>
  
  <!-- 縫い目のカーブライン（右側） -->
  <path d="M 24 12 Q 20 8 16 12 Q 12 16 16 20 Q 20 24 24 20" 
        fill="none" 
        stroke="#cc0000" 
        stroke-width="1.5" 
        stroke-linecap="round"/>
  
  <!-- 縫い目のステッチ（左側） -->
  <g stroke="#cc0000" stroke-width="0.8" stroke-linecap="round">
    <line x1="9" y1="13" x2="10" y2="12"/>
    <line x1="11" y1="10.5" x2="12" y2="9.5"/>
    <line x1="13.5" y1="9" x2="14.5" y2="8"/>
    <line x1="14.5" y1="24" x2="13.5" y2="23"/>
    <line x1="12" y1="22.5" x2="11" y2="21.5"/>
    <line x1="10" y1="20" x2="9" y2="19"/>
  </g>
  
  <!-- 縫い目のステッチ（右側） -->
  <g stroke="#cc0000" stroke-width="0.8" stroke-linecap="round">
    <line x1="23" y1="13" x2="22" y2="12"/>
    <line x1="21" y1="10.5" x2="20" y2="9.5"/>
    <line x1="18.5" y1="9" x2="17.5" y2="8"/>
    <line x1="17.5" y1="24" x2="18.5" y2="23"/>
    <line x1="20" y1="22.5" x2="21" y2="21.5"/>
    <line x1="22" y1="20" x2="23" y2="19"/>
  </g>
  
  <!-- ハイライト -->
  <ellipse cx="12" cy="10" rx="3" ry="2" fill="#ffffff" opacity="0.3"/>
</svg>